<svg width="243" height="92" viewBox="0 0 243 92" fill="none" xmlns="http://www.w3.org/2000/svg">
<path d="M12.6578 45.7604C12.5959 35.9233 16.116 26.3998 22.561 18.9678C29.006 11.5359 37.9355 6.70339 47.6823 5.3725C57.4292 4.04162 67.3273 6.3033 75.5288 11.7353C83.7304 17.1674 89.6748 25.3985 92.2524 34.8921C94.83 44.3857 93.8645 54.4929 89.5363 63.3269C85.2081 72.1608 77.813 79.1178 68.7314 82.899C59.6498 86.6802 49.5025 87.0271 40.1839 83.8752C30.8652 80.7232 23.0121 74.2876 18.0906 65.77" stroke="white" stroke-width="10" stroke-linecap="round" stroke-linejoin="round"/>
<path d="M12.6579 60.6966L25.3158 45.5072H0L12.6579 60.6966Z" fill="white"/>
<path d="M53.1632 25.2546V50.5704H68.3527" stroke="white" stroke-width="10" stroke-linecap="round" stroke-linejoin="round"/>
<path d="M125.904 56.04V63H121.728C118.752 63 116.432 62.28 114.768 60.84C113.104 59.368 112.272 56.984 112.272 53.688V43.032H109.008V36.216H112.272V29.688H120.48V36.216H125.856V43.032H120.48V53.784C120.48 54.584 120.672 55.16 121.056 55.512C121.44 55.864 122.08 56.04 122.976 56.04H125.904ZM134.604 33.432C133.164 33.432 131.98 33.016 131.052 32.184C130.156 31.32 129.708 30.264 129.708 29.016C129.708 27.736 130.156 26.68 131.052 25.848C131.98 24.984 133.164 24.552 134.604 24.552C136.012 24.552 137.164 24.984 138.06 25.848C138.988 26.68 139.452 27.736 139.452 29.016C139.452 30.264 138.988 31.32 138.06 32.184C137.164 33.016 136.012 33.432 134.604 33.432ZM138.684 36.216V63H130.476V36.216H138.684ZM178.808 35.928C182.136 35.928 184.776 36.936 186.728 38.952C188.712 40.968 189.704 43.768 189.704 47.352V63H181.544V48.456C181.544 46.728 181.08 45.4 180.152 44.472C179.256 43.512 178.008 43.032 176.408 43.032C174.808 43.032 173.544 43.512 172.616 44.472C171.72 45.4 171.272 46.728 171.272 48.456V63H163.112V48.456C163.112 46.728 162.648 45.4 161.72 44.472C160.824 43.512 159.576 43.032 157.976 43.032C156.376 43.032 155.112 43.512 154.184 44.472C153.288 45.4 152.84 46.728 152.84 48.456V63H144.632V36.216H152.84V39.576C153.672 38.456 154.76 37.576 156.104 36.936C157.448 36.264 158.968 35.928 160.664 35.928C162.68 35.928 164.472 36.36 166.04 37.224C167.64 38.088 168.888 39.32 169.784 40.92C170.712 39.448 171.976 38.248 173.576 37.32C175.176 36.392 176.92 35.928 178.808 35.928ZM208.885 43.032H204.469V63H196.261V43.032H193.285V36.216H196.261V35.448C196.261 32.152 197.205 29.656 199.093 27.96C200.981 26.232 203.749 25.368 207.397 25.368C208.005 25.368 208.453 25.384 208.741 25.416V32.376C207.173 32.28 206.069 32.504 205.429 33.048C204.789 33.592 204.469 34.568 204.469 35.976V36.216H208.885V43.032ZM240.102 36.216L223.302 75.72H214.47L220.614 62.088L209.718 36.216H218.886L225.078 52.968L231.222 36.216H240.102Z" fill="white"/>
</svg>
